<?xml version="1.0" standalone="no"?>
<!DOCTYPE svg PUBLIC "-//W3C//DTD SVG 20010904//EN"
 "http://www.w3.org/TR/2001/REC-SVG-20010904/DTD/svg10.dtd">
<svg version="1.0" xmlns="http://www.w3.org/2000/svg"
 width="2400.000000pt" height="2400.000000pt" viewBox="0 0 2400.000000 2400.000000"
 preserveAspectRatio="xMidYMid meet">
<metadata>
Created by potrace 1.14, written by Peter Selinger 2001-2017
</metadata>
<g transform="translate(0.000000,2400.000000) scale(0.100000,-0.100000)"
fill="#000000" stroke="none">
<path d="M2299 14876 c-2 -2 -40 -7 -84 -11 -44 -4 -82 -8 -85 -10 -3 -2 -25
-6 -50 -9 -79 -11 -107 -16 -160 -31 -14 -4 -68 -16 -85 -19 -25 -5 -220 -70
-260 -87 -16 -7 -32 -13 -35 -14 -58 -19 -252 -117 -332 -167 -43 -26 -82 -48
-87 -48 -5 0 -11 -4 -13 -8 -1 -5 -25 -23 -53 -42 -168 -113 -381 -314 -525
-495 -148 -187 -318 -485 -370 -650 -7 -22 -18 -53 -25 -70 -11 -24 -24 -68
-29 -95 -1 -3 -4 -10 -8 -15 -3 -6 -10 -28 -14 -50 -10 -51 -11 -54 -14 -60
-3 -7 -5 -13 -15 -65 -5 -25 -9 -47 -10 -50 -1 -3 -5 -25 -9 -50 -5 -25 -10
-52 -11 -60 -27 -149 -27 -576 1 -715 2 -11 6 -36 9 -55 5 -34 40 -199 49
-230 18 -64 72 -223 88 -260 11 -25 23 -54 28 -65 66 -172 263 -487 405 -645
132 -148 363 -353 466 -415 10 -5 38 -25 64 -42 25 -18 48 -33 51 -33 2 0 23
-12 47 -27 193 -122 568 -260 807 -297 19 -3 46 -8 60 -10 131 -24 438 -36
590 -22 129 12 351 50 413 72 20 7 37 11 37 9 0 -15 367 128 470 183 137 74
179 98 218 126 l43 30 202 -202 c736 -735 948 -939 1000 -965 154 -78 338 -56
458 55 95 88 137 185 134 309 -2 91 -4 97 -43 179 -22 46 -121 149 -592 617
l-565 562 21 23 c44 48 158 234 224 363 37 74 67 135 65 135 -2 0 8 28 24 63
32 71 93 265 101 319 1 4 6 22 11 40 6 18 13 47 15 63 2 17 8 55 14 85 27 157
30 206 30 400 -1 157 -2 191 -14 290 -20 167 -86 438 -135 555 -5 11 -19 45
-31 75 -83 206 -243 473 -380 634 -296 347 -642 594 -1045 745 -105 40 -114
43 -119 42 -3 0 -24 6 -46 14 -44 16 -199 54 -240 60 -14 2 -36 6 -50 9 -14 3
-47 8 -75 12 -27 3 -61 8 -75 10 -30 6 -456 14 -461 10z m196 -156 c19 4 36 6
38 4 2 -2 43 -6 93 -9 110 -6 159 -12 235 -25 32 -6 69 -12 81 -14 251 -43
620 -195 843 -350 79 -54 72 -49 140 -103 33 -26 66 -52 73 -58 23 -17 235
-228 262 -260 14 -17 46 -57 70 -90 25 -33 48 -61 53 -63 4 -2 7 -10 7 -17 0
-7 4 -15 9 -17 9 -3 86 -122 116 -178 51 -98 114 -232 134 -285 13 -33 27 -69
32 -80 13 -31 56 -183 73 -258 17 -72 22 -99 30 -162 3 -22 9 -62 13 -90 9
-60 9 -429 0 -500 -40 -325 -144 -646 -286 -879 -23 -38 -41 -70 -41 -73 0
-11 -144 -209 -198 -273 -54 -64 -207 -219 -270 -272 -17 -15 -71 -57 -119
-93 -48 -36 -93 -69 -100 -75 -21 -17 -274 -160 -284 -160 -5 0 -21 -7 -34
-16 -13 -9 -30 -17 -37 -18 -7 -1 -22 -7 -33 -13 -49 -27 -291 -104 -402 -128
-13 -3 -33 -7 -45 -10 -24 -6 -58 -12 -118 -21 -19 -3 -51 -8 -70 -11 -65 -10
-465 -11 -525 -1 -33 5 -76 11 -95 13 -41 5 -95 13 -130 21 -14 3 -35 8 -47
10 -18 3 -226 64 -268 78 -54 18 -220 90 -280 121 -135 72 -165 89 -191 112
-15 12 -33 23 -41 23 -7 0 -13 4 -13 9 0 5 -9 13 -20 16 -11 3 -26 12 -32 19
-7 6 -31 25 -53 41 -22 17 -45 35 -51 40 -6 6 -40 35 -75 65 -78 68 -202 193
-237 240 -15 19 -34 42 -43 50 -18 17 -173 245 -200 295 -9 17 -30 55 -47 85
-42 77 -114 251 -142 340 -12 41 -26 84 -31 95 -7 19 -30 112 -35 145 -1 8 -7
44 -14 80 -32 183 -43 418 -26 590 12 122 13 132 25 200 15 90 19 109 25 118
3 5 8 22 10 38 12 62 15 75 46 166 72 209 149 368 268 548 41 63 81 122 88
130 7 8 21 24 31 35 10 12 34 41 54 65 82 101 230 239 384 358 24 19 193 128
220 143 17 8 55 29 85 45 165 91 478 200 629 220 18 2 36 6 40 8 3 2 30 7 60
11 30 4 63 9 75 11 12 2 70 6 130 9 60 3 112 8 115 11 3 3 7 1 9 -4 2 -6 17
-6 37 -2z"/>
<path d="M3645 13906 c-91 -29 -159 -81 -202 -153 -21 -37 -30 -43 -47 -38
-12 3 -30 8 -41 10 -11 1 -49 11 -85 20 -36 9 -76 19 -90 22 -14 2 -89 20
-167 38 -78 19 -155 37 -170 40 -15 3 -54 11 -85 19 -56 13 -58 13 -65 -8 -4
-11 -7 -23 -8 -26 0 -3 -5 -18 -12 -35 -13 -34 -82 -242 -87 -266 -2 -8 -11
-32 -20 -52 -8 -21 -15 -41 -15 -45 0 -4 -30 -97 -66 -208 l-66 -200 -52 -1
c-29 -1 -79 -4 -112 -8 -33 -3 -82 -8 -110 -10 -27 -3 -57 -7 -65 -10 -8 -2
-33 -6 -55 -10 -110 -16 -418 -108 -450 -135 -8 -7 -15 -10 -15 -7 0 7 -119
-51 -189 -93 -57 -33 -47 -35 -140 21 -77 46 -229 62 -313 33 -21 -7 -38 -10
-38 -7 0 3 -8 0 -17 -8 -10 -8 -31 -21 -48 -29 -43 -22 -118 -98 -150 -152
-77 -135 -68 -324 22 -446 28 -38 103 -111 114 -112 10 0 5 -150 -4 -150 -5 0
-6 -4 -3 -9 3 -5 8 -29 11 -52 13 -109 66 -259 122 -343 66 -100 211 -254 276
-294 15 -9 27 -20 27 -24 0 -4 6 -8 14 -8 8 0 16 -3 18 -7 9 -23 172 -114 300
-169 77 -34 237 -89 283 -99 11 -2 61 -13 110 -24 109 -24 158 -32 210 -37 22
-2 72 -7 110 -10 125 -13 414 -6 504 11 9 1 39 6 66 9 73 10 277 56 300 69 11
6 20 9 20 7 0 -2 25 5 55 15 30 11 57 20 60 20 3 0 26 10 52 22 25 12 57 24
70 28 12 4 28 11 33 15 6 4 44 25 85 46 41 21 113 65 160 98 82 58 251 215
274 254 6 11 28 46 50 78 66 100 112 224 123 333 7 72 7 82 2 154 -3 45 0 50
32 75 78 61 147 158 166 235 10 43 11 169 1 205 -70 264 -347 393 -598 279
-25 -11 -57 -31 -71 -44 l-26 -24 -49 30 c-47 28 -210 111 -220 111 -2 0 -23
9 -47 19 -36 17 -105 41 -129 47 -5 1 -9 2 -10 4 -2 1 -10 3 -18 5 -8 2 -58
15 -110 29 -52 14 -96 25 -98 25 -5 0 -98 14 -117 18 -11 2 -40 6 -65 9 -25 2
-61 6 -80 9 -19 2 -54 4 -77 4 -34 1 -43 5 -43 19 0 10 4 22 10 28 5 5 11 21
14 34 2 14 5 26 7 28 1 1 2 5 3 10 3 12 46 146 53 162 3 8 7 20 8 25 16 64
129 385 136 385 10 0 153 -32 219 -50 39 -10 83 -20 120 -26 14 -3 59 -13 100
-24 112 -28 134 -33 144 -34 6 -1 10 -14 11 -31 5 -121 115 -265 221 -291 16
-4 35 -11 42 -17 22 -17 172 -2 224 23 73 34 133 93 169 166 28 57 32 76 33
147 0 59 -4 92 -17 116 -9 19 -17 40 -17 46 0 19 -111 128 -145 144 -17 7 -38
18 -48 23 -31 15 -168 18 -212 4z m-960 -1030 c105 -12 202 -25 225 -31 3 -1
23 -5 45 -9 76 -15 241 -66 328 -100 371 -150 627 -398 693 -671 19 -78 21
-212 4 -277 -20 -77 -72 -203 -89 -218 -4 -3 -19 -25 -35 -50 -43 -65 -171
-188 -261 -249 -80 -54 -285 -165 -285 -154 0 3 -7 0 -15 -7 -8 -7 -15 -9 -15
-5 0 4 -7 1 -16 -6 -9 -7 -22 -14 -29 -15 -7 -1 -39 -11 -71 -22 -56 -20 -149
-45 -204 -56 -116 -23 -150 -29 -185 -32 -22 -2 -65 -7 -95 -10 -207 -22 -565
2 -735 50 -5 2 -28 7 -50 11 -22 5 -42 10 -45 10 -38 9 -186 63 -239 88 -25
11 -48 22 -51 22 -39 10 -203 110 -280 171 -221 176 -328 358 -335 574 -10
269 124 494 410 689 131 89 355 192 498 227 9 2 25 6 35 8 50 13 162 35 202
41 24 4 47 8 50 10 3 2 45 6 95 9 49 4 90 8 91 9 5 5 303 -1 359 -7z"/>
<path d="M1810 12357 c-58 -29 -87 -54 -114 -97 -110 -172 15 -392 223 -392
85 0 172 51 216 127 59 99 38 238 -45 312 -60 54 -86 65 -165 69 -58 3 -78 0
-115 -19z"/>
<path d="M2952 12365 c-64 -24 -120 -74 -149 -135 -47 -99 -27 -207 53 -287
162 -161 438 -49 437 177 -1 101 -44 176 -131 227 -55 32 -148 40 -210 18z"/>
<path d="M1883 11502 c-11 -7 -33 -54 -33 -70 0 -37 179 -162 231 -162 10 0
20 -4 23 -9 5 -8 22 -12 92 -27 130 -26 390 -30 514 -7 155 29 283 86 354 159
27 27 33 42 30 62 -13 69 -72 81 -137 29 l-42 -34 -442 1 -442 1 -42 33 c-41
31 -81 40 -106 24z"/>
<path d="M10624 13689 c-3 -5 -13 -9 -23 -9 -24 0 -80 -60 -94 -102 -9 -24
-12 -153 -12 -435 0 -447 7 -408 -58 -351 -18 16 -162 95 -162 89 0 -1 -13 3
-30 9 -78 30 -281 33 -385 5 -134 -35 -287 -122 -375 -215 -22 -23 -47 -49
-56 -58 -9 -9 -34 -44 -56 -77 -259 -387 -217 -904 101 -1245 26 -28 51 -50
56 -50 6 0 10 -3 10 -8 0 -12 122 -90 191 -121 158 -71 343 -86 509 -41 61 16
166 72 215 114 l40 35 17 -36 c66 -136 249 -137 319 -1 18 35 19 80 19 1197 0
1029 -2 1166 -15 1199 -17 40 -56 79 -95 94 -34 13 -109 18 -116 7z m-442
-1144 c175 -59 300 -218 345 -440 8 -37 8 -200 0 -240 -44 -230 -201 -412
-393 -455 -77 -18 -182 -5 -260 30 -36 17 -72 36 -79 43 -112 102 -164 176
-199 280 -25 74 -30 113 -30 217 -1 117 6 158 38 244 100 266 342 400 578 321z"/>
<path d="M12464 13689 c-38 -11 -95 -63 -112 -103 -10 -22 -13 -132 -13 -438
l0 -408 -27 26 c-44 42 -152 101 -227 124 -110 35 -255 35 -386 1 -157 -41
-255 -97 -371 -213 -41 -40 -90 -98 -110 -129 -68 -103 -128 -239 -142 -321
-3 -15 -7 -32 -10 -36 -8 -13 -19 -146 -19 -222 0 -53 15 -174 27 -225 19 -78
92 -256 108 -263 5 -2 8 -8 8 -13 0 -18 76 -116 139 -178 67 -67 183 -148 242
-170 19 -7 43 -17 54 -22 119 -53 380 -58 490 -10 11 5 33 14 49 20 35 14 122
71 153 100 l22 21 16 -35 c51 -107 185 -138 271 -63 71 63 66 -35 66 1258 0
1089 -1 1170 -17 1205 -18 37 -74 87 -104 92 -51 9 -79 9 -107 2z m-425 -1149
c115 -45 205 -131 270 -261 22 -43 40 -82 40 -84 0 -3 5 -31 12 -63 27 -127
15 -271 -32 -398 -30 -81 -56 -119 -129 -194 -97 -99 -201 -141 -329 -135 -77
3 -140 21 -197 54 -29 17 -41 27 -100 78 -49 43 -133 189 -148 258 -3 17 -9
41 -12 55 -4 14 -8 70 -9 125 -5 201 71 379 209 491 42 34 113 75 136 80 3 0
12 3 20 7 55 22 197 16 269 -13z"/>
<path d="M13205 13486 c-136 -52 -214 -160 -216 -299 0 -37 6 -78 16 -102 10
-22 17 -41 16 -42 0 -2 9 -15 22 -30 79 -97 140 -127 257 -127 72 0 92 4 135
26 63 33 117 87 147 147 18 37 22 63 22 131 0 98 -21 153 -82 215 -60 60 -125
88 -212 90 -41 1 -88 -3 -105 -9z"/>
<path d="M16701 13489 c-123 -38 -219 -162 -222 -289 -3 -122 62 -229 172
-286 47 -24 65 -28 139 -28 99 0 151 20 217 83 159 153 108 419 -97 508 -44
18 -164 26 -209 12z"/>
<path d="M15888 13299 c-20 -10 -50 -35 -65 -56 -28 -36 -28 -39 -31 -195 l-3
-158 -82 -1 c-107 -1 -124 -4 -165 -36 -101 -76 -66 -239 58 -270 19 -5 69 -9
111 -8 l75 1 1 -676 0 -676 26 -40 c24 -39 66 -74 93 -78 7 -1 16 -5 19 -8 11
-11 109 12 142 34 19 13 44 43 56 68 22 45 22 47 22 713 l-1 667 95 0 c74 0
104 4 136 20 35 17 76 65 81 95 1 6 3 19 5 30 9 54 -36 128 -91 151 -21 9 -70
15 -127 16 -51 0 -94 3 -94 7 -1 3 -3 65 -4 137 -3 145 -13 189 -53 229 -52
52 -141 67 -204 34z"/>
<path d="M14148 13301 c-53 -17 -88 -46 -109 -91 -19 -39 -22 -63 -22 -187 0
-123 -3 -143 -16 -144 -9 0 -52 -2 -96 -3 -62 -1 -89 -7 -120 -25 -102 -57
-100 -204 4 -265 26 -15 54 -20 122 -21 49 -1 92 -5 96 -9 4 -4 8 -307 8 -674
1 -737 -2 -699 65 -755 55 -47 128 -54 194 -20 37 19 49 31 75 74 21 33 21 44
21 709 l0 675 95 1 c122 2 174 24 205 90 17 35 21 54 15 89 -6 45 -40 96 -76
116 -27 14 -109 28 -109 18 0 -4 -12 -5 -27 -2 -16 3 -44 6 -63 7 l-35 1 -3
140 c-2 122 -5 146 -24 184 -37 73 -127 114 -200 92z"/>
<path d="M8247 12924 c-3 -4 -25 -6 -49 -6 -61 2 -197 -33 -271 -67 -215 -102
-373 -278 -463 -518 -13 -34 -26 -75 -29 -90 -3 -15 -8 -38 -10 -49 -21 -98
-25 -240 -10 -349 4 -33 9 -67 10 -75 1 -8 5 -22 8 -30 3 -8 12 -39 21 -68 84
-272 313 -508 565 -581 36 -11 82 -23 101 -26 75 -14 283 -8 331 9 8 3 25 7
39 10 154 28 378 176 436 287 17 34 25 117 12 125 -4 3 -8 12 -8 20 0 23 -52
75 -93 94 -63 28 -161 6 -216 -49 -20 -20 -104 -80 -137 -97 -56 -30 -151 -53
-236 -58 -48 -2 -161 28 -210 57 -103 60 -182 155 -231 274 -32 79 -42 124
-29 132 6 3 261 5 569 5 512 -2 561 0 598 16 123 54 158 176 106 370 -49 184
-172 374 -312 481 -17 13 -36 29 -42 34 -38 35 -257 136 -257 120 0 -3 -8 -1
-18 4 -10 5 -49 12 -87 16 -39 4 -73 9 -76 11 -3 2 -9 1 -12 -2z m88 -368 c11
-2 20 -5 20 -6 0 -1 8 -3 17 -5 91 -17 236 -150 292 -268 21 -43 36 -83 34
-89 -4 -10 -903 -16 -914 -6 -2 3 2 18 9 34 8 16 22 48 33 71 10 24 22 43 27
43 4 0 7 6 7 14 0 8 29 43 65 80 67 67 156 119 225 131 19 3 36 8 38 10 5 4
120 -2 147 -9z"/>
<path d="M18007 12923 c-2 -1 -23 -5 -47 -9 -25 -3 -54 -7 -65 -9 -34 -5 -153
-56 -166 -71 -6 -8 -17 -14 -23 -14 -6 0 -18 -9 -26 -20 -17 -23 -40 -27 -40
-6 0 27 -35 75 -73 100 -65 41 -163 32 -224 -22 -55 -47 -54 -31 -54 -855 -1
-419 1 -769 3 -777 7 -33 36 -75 70 -103 31 -25 45 -29 100 -30 92 0 141 29
172 105 13 30 15 118 16 559 1 288 3 535 5 549 11 92 62 184 124 226 55 38
125 54 216 51 162 -7 263 -91 296 -249 8 -35 12 -230 13 -583 1 -500 2 -532
20 -568 40 -80 149 -115 237 -76 47 22 63 38 86 89 14 30 16 105 19 580 2 544
3 564 17 588 5 6 6 12 3 12 -9 0 28 74 49 100 69 83 135 109 267 105 58 -2
107 -9 131 -19 49 -22 114 -81 137 -125 42 -84 44 -104 45 -666 1 -508 3 -542
20 -580 24 -48 42 -67 82 -84 76 -31 165 -14 215 41 39 44 45 72 44 236 -1 78
3 142 7 142 5 0 5 5 1 11 -10 17 -11 222 0 237 4 6 5 12 0 12 -5 0 -9 50 -9
110 0 61 4 110 8 110 5 0 5 5 1 12 -4 6 -7 52 -5 102 2 111 2 100 -3 161 -6
81 -17 146 -32 187 -7 21 -10 38 -6 38 4 0 3 4 -3 8 -5 4 -23 34 -40 67 -16
33 -34 65 -40 71 -5 6 -23 28 -40 49 -98 125 -305 211 -495 205 -188 -6 -330
-70 -457 -209 l-41 -46 -24 30 c-92 118 -214 193 -348 214 -75 12 -139 18
-143 14z"/>
<path d="M20728 12925 c-2 -3 -20 -7 -38 -9 -19 -3 -52 -8 -73 -11 -21 -3 -46
-9 -55 -14 -9 -5 -20 -9 -25 -10 -79 -8 -232 -103 -334 -207 -178 -182 -271
-416 -271 -684 0 -120 10 -195 40 -295 23 -78 75 -196 92 -207 6 -4 7 -8 3 -8
-9 0 43 -73 56 -78 4 -2 7 -9 7 -15 1 -38 186 -195 293 -248 260 -132 606
-106 856 63 54 37 153 133 170 166 46 88 2 206 -93 246 -66 27 -138 6 -228
-68 -31 -25 -61 -46 -67 -46 -6 0 -11 -4 -11 -9 0 -10 -100 -55 -157 -70 -220
-58 -454 67 -554 296 -24 54 -50 143 -44 152 1 3 257 5 567 5 542 -1 565 -1
611 19 58 24 104 80 122 147 7 27 11 50 9 52 -2 2 -6 33 -9 68 -3 35 -11 72
-16 82 -5 10 -7 18 -4 18 3 0 -4 24 -16 53 -11 28 -22 59 -24 67 -6 30 -89
166 -135 225 -54 67 -114 124 -183 173 -47 33 -178 99 -213 107 -10 2 -35 9
-54 15 -19 6 -71 13 -115 16 -44 2 -85 6 -92 9 -6 2 -13 2 -15 0z m132 -369
c125 -24 272 -150 333 -286 41 -93 41 -90 -1 -91 -369 -5 -877 0 -880 10 -5
15 61 145 100 194 40 50 84 91 118 109 14 7 31 19 38 26 8 7 17 10 22 7 5 -3
10 -1 12 3 1 5 28 15 58 24 55 15 134 16 200 4z"/>
<path d="M22699 12925 c-3 -2 -33 -6 -69 -9 -154 -13 -303 -81 -408 -186 -42
-43 -46 -43 -42 -3 2 27 -26 81 -56 109 -41 39 -107 54 -169 40 -35 -8 -78
-43 -101 -82 l-27 -46 0 -753 c0 -830 -3 -792 64 -856 38 -37 45 -39 115 -41
71 -2 144 48 167 115 4 10 7 208 8 440 0 361 5 462 22 522 44 149 150 281 277
342 83 41 102 45 235 49 135 5 167 15 207 65 57 71 55 159 -5 221 -46 47 -71
59 -139 64 -33 2 -63 6 -68 9 -4 2 -9 3 -11 0z"/>
<path d="M7050 12910 c-19 -4 -49 -10 -66 -14 -94 -18 -213 -85 -295 -163
l-46 -44 -7 42 c-25 155 -229 200 -318 71 l-33 -47 1 -765 c0 -839 -3 -792 59
-854 79 -79 228 -48 275 57 15 33 18 64 17 169 -1 70 2 128 6 128 5 0 5 5 1
11 -9 15 -11 159 -2 159 4 0 5 6 2 14 -9 24 -10 136 -1 136 5 0 5 6 1 12 -9
14 -7 125 2 139 3 5 1 9 -4 9 -6 0 -7 14 -2 35 4 19 4 35 0 35 -5 0 -5 15 0
33 5 17 11 48 14 67 9 64 46 144 97 216 104 143 251 213 439 209 96 -2 131 7
173 44 74 65 76 190 3 253 -41 37 -88 50 -186 52 -52 2 -111 -1 -130 -4z"/>
<path d="M16780 12742 c-64 -8 -120 -45 -148 -97 -15 -27 -17 -100 -18 -700
-2 -411 2 -685 8 -709 10 -39 55 -94 96 -115 54 -28 150 -10 196 38 53 55 52
50 52 773 -1 637 -2 675 -20 711 -29 60 -108 107 -166 99z"/>
<path d="M13270 12723 c-77 -21 -118 -58 -138 -123 -7 -24 -10 -251 -9 -710 2
-604 4 -678 19 -705 43 -80 141 -115 222 -81 33 14 95 70 97 87 3 19 5 24 10
34 3 6 5 316 4 690 -1 740 2 708 -57 762 -37 35 -108 57 -148 46z"/>
</g>
</svg>
